<svg width="492" height="527" viewBox="0 0 492 527" fill="none" xmlns="http://www.w3.org/2000/svg">
<g clip-path="url(#clip0_8912_3)">
<path d="M210.75 15.625C120.141 15.625 46.6875 89.0781 46.6875 179.688H85.75V156.25H99.6562C146.133 156.25 191.086 139.625 226.375 109.375V15.625H210.75Z" fill="#1A6DFF"/>
<path d="M312.312 187.5C290.773 187.5 273.25 205.023 273.25 226.562C273.25 248.102 290.773 265.625 312.312 265.625C333.852 265.625 351.375 248.102 351.375 226.562C351.375 205.023 333.852 187.5 312.312 187.5ZM335.75 226.562C335.75 230.172 334.867 233.547 333.398 236.602L323.359 226.562L333.398 216.523C334.867 219.578 335.75 222.953 335.75 226.562ZM322.352 205.477L312.312 215.516L302.273 205.477C305.328 204.008 308.703 203.125 312.312 203.125C315.922 203.125 319.297 204.008 322.352 205.477ZM291.227 236.602C289.758 233.547 288.875 230.172 288.875 226.562C288.875 222.953 289.758 219.578 291.227 216.523L301.266 226.562L291.227 236.602ZM302.273 247.648L312.312 237.609L322.352 247.648C319.297 249.117 315.922 250 312.312 250C308.703 250 305.328 249.117 302.273 247.648Z" fill="#1A6DFF"/>
<path d="M38.875 179.688H54.5C54.5 93.5312 124.594 23.4375 210.75 23.4375H218.562V105.734C185.133 133.297 143.047 148.438 99.6562 148.438H77.9375V296.875C77.9375 347.547 115.281 389.555 163.875 397.109V492.188H234.188V414.062H218.562V476.562H179.5V398.438H234.188V7.8125H210.75C115.977 7.8125 38.875 84.9141 38.875 179.688ZM179.5 382.812C132.117 382.812 93.5625 344.258 93.5625 296.875V164.062H99.6562C142.469 164.062 184.109 150.461 218.562 125.484V334.828C205.125 331.336 195.125 319.211 195.125 304.688H179.5C179.5 327.867 196.43 347.117 218.562 350.859V382.812H179.5Z" fill="#1A6DFF"/>
<path d="M-0.1875 250C-0.1875 280.148 24.3438 304.688 54.5 304.688H62.3125V195.312H54.5C24.3438 195.312 -0.1875 219.844 -0.1875 250ZM46.6875 288.273C28.8828 284.648 15.4375 268.867 15.4375 250C15.4375 231.133 28.8828 215.352 46.6875 211.727V288.273Z" fill="#1A6DFF"/>
<path d="M156.062 210.938C143.141 210.938 132.625 221.453 132.625 234.375C132.625 247.297 143.141 257.812 156.062 257.812C168.984 257.812 179.5 247.297 179.5 234.375C179.5 221.453 168.984 210.938 156.062 210.938ZM156.062 242.188C151.758 242.188 148.25 238.68 148.25 234.375C148.25 230.07 151.758 226.562 156.062 226.562C160.367 226.562 163.875 230.07 163.875 234.375C163.875 238.68 160.367 242.188 156.062 242.188Z" fill="#1A6DFF"/>
<path d="M429.5 195.312H421.688V304.688H429.5C459.656 304.688 484.188 280.148 484.188 250C484.188 219.844 459.656 195.312 429.5 195.312ZM437.312 288.273V211.719C455.117 215.344 468.562 231.133 468.562 249.992C468.562 268.867 455.117 284.648 437.312 288.273Z" fill="#1A6DFF"/>
<path d="M249.812 164.062H390.438V296.875C390.438 344.258 351.883 382.812 304.5 382.812H249.812V398.438H304.5C360.5 398.438 406.062 352.875 406.062 296.875V148.438H249.812V164.062Z" fill="#1A6DFF"/>
<path d="M304.5 7.8125H249.812V23.4375H265.438V54.6875H249.812V70.3125H281.062V23.4375H296.688V85.9375H249.812V101.562H312.312V23.8359C356.047 27.7969 390.438 64.625 390.438 109.375V132.812H406.062V109.375C406.062 53.375 360.5 7.8125 304.5 7.8125Z" fill="#1A6DFF"/>
<path d="M421.688 85.9375H437.312V53.25C446.383 50.0156 452.938 41.4219 452.938 31.25C452.938 18.3281 442.422 7.8125 429.5 7.8125C416.578 7.8125 406.062 18.3281 406.062 31.25C406.062 41.4219 412.617 50.0156 421.688 53.25V85.9375ZM429.5 23.4375C433.805 23.4375 437.312 26.9453 437.312 31.25C437.312 35.5547 433.805 39.0625 429.5 39.0625C425.195 39.0625 421.688 35.5547 421.688 31.25C421.688 26.9453 425.195 23.4375 429.5 23.4375Z" fill="#1A6DFF"/>
<path d="M343.562 320.312C343.562 303.078 329.547 289.062 312.312 289.062H249.812V304.688H265.438V335.938H249.812V351.562H312.312C329.547 351.562 343.562 337.547 343.562 320.312ZM327.938 320.312C327.938 328.93 320.93 335.938 312.312 335.938V304.688C320.93 304.688 327.938 311.695 327.938 320.312ZM281.062 304.688H296.688V335.938H281.062V304.688Z" fill="#1A6DFF"/>
<path d="M273.25 117.188H257.625V132.812H273.25V117.188Z" fill="#1A6DFF"/>
<path d="M312.312 117.188H296.688V132.812H312.312V117.188Z" fill="#1A6DFF"/>
<path d="M351.375 117.188H335.75V132.812H351.375V117.188Z" fill="#1A6DFF"/>
<path d="M312.312 414.062H296.688V445.312H249.812V460.938H351.375V476.562H249.812V492.188H367V445.312H312.312V414.062Z" fill="#1A6DFF"/>
<path d="M437.312 101.562H421.688V179.688H437.312V101.562Z" fill="#1A6DFF"/>
</g>
<defs>
<clipPath id="clip0_8912_3">
<rect width="492" height="527" fill="white"/>
</clipPath>
</defs>
</svg>
