<svg width="96" height="96" viewBox="0 0 96 96" fill="none" xmlns="http://www.w3.org/2000/svg">
    <path d="M62.898 9.5985C62.4105 13.125 60.3405 15.987 59.2965 17.2365C57.2385 19.7085 54.144 21.543 51.0795 22.218C51.4515 19.3725 53.094 16.5825 54.795 14.6535C56.7795 12.4125 59.8755 10.5285 62.898 9.5985ZM65.8365 6C61.1805 6.2985 55.731 9.072 52.5495 12.663C49.665 15.9345 47.2725 20.793 48.204 25.494C48.333 25.4985 48.462 25.5 48.5925 25.5C53.5545 25.5 58.626 22.7295 61.602 19.1565C64.458 15.7395 66.624 10.914 65.8365 6Z" fill="url(#paint0_linear_8907_3)"/>
    <path d="M66.252 31.506C69.918 31.506 73.725 33.0345 76.9095 35.7045C71.952 39.489 69 45.342 69 51.75C69 59.361 73.2405 66.2085 79.824 69.6645C78.7665 71.9085 77.5395 74.058 76.1625 76.0785C73.1775 80.4435 69.168 85.458 64.6095 85.4955H64.491C62.64 85.4955 61.425 85.0275 59.7405 84.3795C57.588 83.5515 54.909 82.521 50.4825 82.4985L50.229 82.503L49.9875 82.5C45.5895 82.521 42.9105 83.553 40.7595 84.381C39.0765 85.029 37.86 85.497 36.009 85.497H35.883C31.332 85.4595 27.3225 80.445 24.3405 76.083C14.8845 62.205 14.8755 47.172 19.671 40.0695C23.1735 34.869 28.896 31.5075 34.251 31.5075C37.1295 31.5075 39.471 32.223 41.952 32.9805C44.397 33.7275 46.929 34.5 49.875 34.5H50.25H50.625C53.571 34.5 56.103 33.7275 58.551 32.979C61.0305 32.2215 63.3735 31.506 66.252 31.506ZM66.252 28.506C59.9025 28.506 55.872 31.5 50.625 31.5C50.484 31.5 50.25 31.5 50.25 31.5C50.25 31.5 50.016 31.5 49.875 31.5C44.628 31.5 40.5975 28.506 34.248 28.506C28.0155 28.506 21.375 32.163 17.181 38.3925C11.25 47.1765 12.261 63.6825 21.861 77.7705C25.2915 82.788 29.877 88.446 35.859 88.494C35.91 88.494 35.9595 88.4955 36.009 88.4955C41.22 88.4955 42.849 85.5345 50.0025 85.5C50.007 85.5 50.013 85.5 50.0175 85.5C50.0985 85.5 50.1705 85.5045 50.25 85.5045C50.3295 85.5045 50.4015 85.5 50.4825 85.5C50.487 85.5 50.493 85.5 50.4975 85.5C57.651 85.5345 59.2815 88.4955 64.491 88.4955C64.5405 88.4955 64.5915 88.4955 64.641 88.494C70.623 88.4445 75.2085 82.788 78.639 77.7705C80.7795 74.6295 82.47 71.367 83.775 68.097C76.935 65.808 72 59.361 72 51.75C72 44.934 75.963 39.06 81.7005 36.258C77.529 31.338 71.733 28.506 66.252 28.506Z" fill="url(#paint1_linear_8907_3)"/>
    <path d="M33.528 77.9415C32.208 76.641 30.7845 74.8785 29.298 72.705C24.978 66.363 22.5 58.9995 22.5 52.5C22.5 47.223 24.975 42.447 29.4705 39.0525L31.278 41.4465C27.552 44.2605 25.5 48.186 25.5 52.5C25.5 58.4115 27.7875 65.1585 31.7775 71.0145C33.153 73.0275 34.452 74.64 35.634 75.8055L33.528 77.9415Z" fill="url(#paint2_linear_8907_3)"/>
    <defs>
        <linearGradient id="paint0_linear_8907_3" x1="57" y1="6.8745" x2="57" y2="88.1445" gradientUnits="userSpaceOnUse">
            <stop stop-color="#1A6DFF"/>
            <stop offset="1" stop-color="#C822FF"/>
        </linearGradient>
        <linearGradient id="paint1_linear_8907_3" x1="48.6375" y1="6.87448" x2="48.6375" y2="88.1445" gradientUnits="userSpaceOnUse">
            <stop stop-color="#1A6DFF"/>
            <stop offset="1" stop-color="#C822FF"/>
        </linearGradient>
        <linearGradient id="paint2_linear_8907_3" x1="29.067" y1="39.0525" x2="29.067" y2="77.9415" gradientUnits="userSpaceOnUse">
            <stop stop-color="#6DC7FF"/>
            <stop offset="1" stop-color="#E6ABFF"/>
        </linearGradient>
    </defs>
</svg>
