<svg width="48" height="56" viewBox="0 0 48 56" fill="none" xmlns="http://www.w3.org/2000/svg">
<g clip-path="url(#clip0_1_493)">
<path d="M34.8931 19.1533C33.7776 18.6449 32.5985 18.3898 31.4112 18.4C27.5718 18.4 24.8602 20.8192 24.841 24.2921C24.817 26.8434 26.7679 28.2812 28.2437 29.1336C29.7579 30.0101 30.2642 30.5624 30.2594 31.3458C30.2498 32.5374 29.05 33.0777 27.9341 33.0777C26.4008 33.0777 25.5633 32.8106 24.2747 32.1412L23.7972 31.8621L23.2525 35.8602C24.1859 36.3464 25.8681 36.7636 27.6054 36.7997C31.6872 36.7997 34.3556 34.3954 34.3868 30.7004C34.4204 28.6624 33.3645 27.1226 31.1425 25.8499C29.7915 25.0244 28.954 24.4722 28.954 23.6347C28.954 22.8933 29.6715 22.1009 31.1713 22.1009C32.1694 22.0707 33.1614 22.3049 34.082 22.7883L34.442 22.9894L34.9867 19.1263L34.8931 19.1533ZM44.8564 18.7241H41.8569C40.9234 18.7241 40.2203 19.0453 39.8124 20.2039L34.0436 36.5505H38.1254L38.9413 33.8701L43.923 33.8761C44.0405 34.5034 44.4005 36.5505 44.4005 36.5505H47.9999L44.8564 18.7241ZM19.3194 18.574H23.2093L20.776 36.4095H16.891L19.3194 18.568V18.574ZM9.44492 28.4042L9.84806 30.8805L13.6491 18.7241H17.7693L11.6478 36.5265H7.53721L4.17771 21.4526C4.1233 21.204 3.99552 20.9905 3.82017 20.8552C2.60931 20.0728 1.32633 19.4791 -6.10352e-05 19.0873L0.0527309 18.7121H6.31339C7.16286 18.7541 7.84676 19.0873 8.07473 20.2219L9.44252 28.4132V28.4042H9.44492ZM40.0571 30.2232L41.6073 25.2346C41.5881 25.2886 41.9265 24.205 42.1232 23.5357L42.3896 25.0755L43.2894 30.2202H40.0547V30.2232H40.0571Z" fill="#E0E0E0"/>
</g>
<defs>
<clipPath id="clip0_1_493">
<rect width="48" height="55.2" fill="white"/>
</clipPath>
</defs>
</svg>
