<svg width="48" height="45" viewBox="0 0 48 45" fill="none" xmlns="http://www.w3.org/2000/svg">
<path d="M17.4935 9.26147H30.4592V36.5467H17.4935V9.26147Z" fill="#BDBDBD"/>
<path d="M18.3167 22.9045C18.3167 17.3608 20.5393 12.4435 23.9556 9.26179C21.4449 6.94789 18.2756 5.54993 14.8181 5.54993C6.62681 5.54993 0 13.3112 0 22.9045C0 32.4977 6.62681 40.2591 14.8179 40.2591C18.2754 40.2591 21.4447 38.8612 23.9556 36.5471C20.5393 33.4136 18.3167 28.4483 18.3167 22.9045Z" fill="#828282"/>
<path d="M47.9524 22.9045C47.9524 32.4977 41.3256 40.2591 33.1345 40.2591C29.677 40.2591 26.5076 38.8612 23.9968 36.5471C27.4543 33.3655 29.6359 28.4483 29.6359 22.9045C29.6359 17.3608 27.4131 12.4435 23.9968 9.26179C26.5075 6.94789 29.677 5.54993 33.1345 5.54993C41.3256 5.54993 47.9526 13.3595 47.9526 22.9045H47.9524Z" fill="#E0E0E0"/>
</svg>
